<svg xmlns="http://www.w3.org/2000/svg" xmlns:xlink="http://www.w3.org/1999/xlink" width="500" zoomAndPan="magnify" viewBox="0 0 375 374.999991" height="500" preserveAspectRatio="xMidYMid meet" version="1.0"><defs><g/><clipPath id="dc1847f1ea"><path d="M 15 141 L 95.265625 141 L 95.265625 222 L 15 222 Z M 15 141 " clip-rule="nonzero"/></clipPath><clipPath id="3030e1b1c3"><rect x="0" width="266" y="0" height="87"/></clipPath></defs><rect x="-37.5" width="450" fill="#ffffff" y="-37.499999" height="449.999989" fill-opacity="1"/><rect x="-37.5" width="450" fill="#f7f7f7" y="-37.499999" height="449.999989" fill-opacity="1"/><path fill="#710bd0" d="M 49.507812 187.359375 L 69.667969 207.519531 L 47.808594 229.359375 C 54.648438 236.203125 65.742188 236.203125 72.585938 229.359375 L 91.277344 210.671875 L 58.746094 178.121094 Z M 49.507812 187.359375 " fill-opacity="1" fill-rule="nonzero"/><g clip-path="url(#dc1847f1ea)"><path fill="#710bd0" d="M 95.007812 165.5 L 78.441406 148.933594 C 68.292969 138.789062 51.867188 138.789062 41.71875 148.933594 L 22.910156 167.742188 C 12.765625 177.890625 12.765625 194.320312 22.910156 204.464844 L 39.476562 221.03125 C 39.921875 221.476562 40.617188 221.476562 41.0625 221.03125 L 51.535156 210.554688 C 51.980469 210.109375 51.980469 209.414062 51.535156 208.96875 L 32.207031 189.660156 C 30.488281 187.941406 30.488281 185.175781 32.207031 183.457031 L 56.890625 158.792969 C 58.609375 157.074219 61.375 157.074219 63.09375 158.792969 L 82.40625 178.101562 C 82.847656 178.546875 83.546875 178.546875 83.988281 178.101562 L 95.027344 167.066406 C 95.453125 166.640625 95.453125 165.945312 95.007812 165.5 Z M 95.007812 165.5 " fill-opacity="1" fill-rule="nonzero"/></g><g transform="matrix(1, 0, 0, 1, 95, 144)"><g clip-path="url(#3030e1b1c3)"><g fill="#000000" fill-opacity="1"><g transform="translate(0.454915, 63.075083)"><g><path d="M 24.3125 0.828125 C 20.082031 0.828125 16.328125 -0.0859375 13.046875 -1.921875 C 9.765625 -3.765625 7.191406 -6.304688 5.328125 -9.546875 C 3.472656 -12.785156 2.546875 -16.523438 2.546875 -20.765625 C 2.546875 -24.992188 3.460938 -28.726562 5.296875 -31.96875 C 7.140625 -35.207031 9.691406 -37.742188 12.953125 -39.578125 C 16.222656 -41.421875 19.953125 -42.34375 24.140625 -42.34375 C 27.503906 -42.34375 30.609375 -41.75 33.453125 -40.5625 C 36.296875 -39.382812 38.71875 -37.71875 40.71875 -35.5625 C 42.71875 -33.40625 44.128906 -30.863281 44.953125 -27.9375 L 34.8125 -27.9375 C 33.820312 -29.757812 32.40625 -31.171875 30.5625 -32.171875 C 28.726562 -33.179688 26.644531 -33.6875 24.3125 -33.6875 C 21.90625 -33.6875 19.769531 -33.132812 17.90625 -32.03125 C 16.050781 -30.925781 14.597656 -29.40625 13.546875 -27.46875 C 12.503906 -25.53125 11.984375 -23.296875 11.984375 -20.765625 C 11.984375 -18.265625 12.492188 -16.046875 13.515625 -14.109375 C 14.546875 -12.171875 15.988281 -10.640625 17.84375 -9.515625 C 19.707031 -8.390625 21.90625 -7.828125 24.4375 -7.828125 C 27.476562 -7.828125 30.003906 -8.597656 32.015625 -10.140625 C 34.035156 -11.679688 35.34375 -13.71875 35.9375 -16.25 L 22.484375 -16.25 L 22.484375 -23.546875 L 45.90625 -23.546875 C 46.144531 -19.984375 45.796875 -16.71875 44.859375 -13.75 C 43.929688 -10.789062 42.507812 -8.210938 40.59375 -6.015625 C 38.675781 -3.828125 36.34375 -2.140625 33.59375 -0.953125 C 30.851562 0.234375 27.757812 0.828125 24.3125 0.828125 Z M 24.3125 0.828125 "/></g></g></g><g fill="#000000" fill-opacity="1"><g transform="translate(45.571921, 63.075083)"><g><path d="M 19.21875 0.828125 C 15.894531 0.828125 12.957031 0.132812 10.40625 -1.25 C 7.851562 -2.632812 5.863281 -4.5625 4.4375 -7.03125 C 3.019531 -9.5 2.3125 -12.351562 2.3125 -15.59375 C 2.3125 -18.84375 3.03125 -21.691406 4.46875 -24.140625 C 5.914062 -26.585938 7.914062 -28.503906 10.46875 -29.890625 C 13.019531 -31.273438 15.972656 -31.96875 19.328125 -31.96875 C 22.890625 -31.96875 25.960938 -31.175781 28.546875 -29.59375 C 31.140625 -28.007812 33.117188 -25.796875 34.484375 -22.953125 C 35.847656 -20.109375 36.429688 -16.785156 36.234375 -12.984375 L 11.265625 -12.984375 C 11.703125 -10.847656 12.648438 -9.21875 14.109375 -8.09375 C 15.578125 -6.96875 17.335938 -6.40625 19.390625 -6.40625 C 20.898438 -6.40625 22.273438 -6.691406 23.515625 -7.265625 C 24.765625 -7.835938 25.765625 -8.640625 26.515625 -9.671875 L 35.640625 -9.671875 C 34.296875 -6.390625 32.179688 -3.816406 29.296875 -1.953125 C 26.410156 -0.0976562 23.050781 0.828125 19.21875 0.828125 Z M 11.328125 -18.6875 L 27.515625 -18.6875 C 27.003906 -20.582031 26.046875 -22.070312 24.640625 -23.15625 C 23.234375 -24.25 21.484375 -24.796875 19.390625 -24.796875 C 17.410156 -24.796875 15.695312 -24.25 14.25 -23.15625 C 12.8125 -22.070312 11.835938 -20.582031 11.328125 -18.6875 Z M 11.328125 -18.6875 "/></g></g></g><g fill="#000000" fill-opacity="1"><g transform="translate(80.787782, 63.075083)"><g><path d="M 19.21875 0.828125 C 15.894531 0.828125 12.957031 0.132812 10.40625 -1.25 C 7.851562 -2.632812 5.863281 -4.5625 4.4375 -7.03125 C 3.019531 -9.5 2.3125 -12.351562 2.3125 -15.59375 C 2.3125 -18.84375 3.03125 -21.691406 4.46875 -24.140625 C 5.914062 -26.585938 7.914062 -28.503906 10.46875 -29.890625 C 13.019531 -31.273438 15.972656 -31.96875 19.328125 -31.96875 C 22.890625 -31.96875 25.960938 -31.175781 28.546875 -29.59375 C 31.140625 -28.007812 33.117188 -25.796875 34.484375 -22.953125 C 35.847656 -20.109375 36.429688 -16.785156 36.234375 -12.984375 L 11.265625 -12.984375 C 11.703125 -10.847656 12.648438 -9.21875 14.109375 -8.09375 C 15.578125 -6.96875 17.335938 -6.40625 19.390625 -6.40625 C 20.898438 -6.40625 22.273438 -6.691406 23.515625 -7.265625 C 24.765625 -7.835938 25.765625 -8.640625 26.515625 -9.671875 L 35.640625 -9.671875 C 34.296875 -6.390625 32.179688 -3.816406 29.296875 -1.953125 C 26.410156 -0.0976562 23.050781 0.828125 19.21875 0.828125 Z M 11.328125 -18.6875 L 27.515625 -18.6875 C 27.003906 -20.582031 26.046875 -22.070312 24.640625 -23.15625 C 23.234375 -24.25 21.484375 -24.796875 19.390625 -24.796875 C 17.410156 -24.796875 15.695312 -24.25 14.25 -23.15625 C 12.8125 -22.070312 11.835938 -20.582031 11.328125 -18.6875 Z M 11.328125 -18.6875 "/></g></g></g><g fill="#000000" fill-opacity="1"><g transform="translate(116.003643, 63.075083)"><g><path d="M 4.5 0 L 4.5 -43.890625 L 13.515625 -43.890625 L 13.515625 -19.921875 L 15.84375 -19.921875 C 17.738281 -19.921875 19.171875 -20.226562 20.140625 -20.84375 C 21.109375 -21.457031 21.890625 -22.632812 22.484375 -24.375 L 24.671875 -31.140625 L 34.40625 -31.140625 L 30.78125 -21.234375 C 29.789062 -18.460938 28.46875 -16.347656 26.8125 -14.890625 L 35.765625 0 L 25.265625 0 L 18.390625 -11.859375 L 13.515625 -11.859375 L 13.515625 0 Z M 4.5 0 "/></g></g></g><g fill="#000000" fill-opacity="1"><g transform="translate(150.033744, 63.075083)"><g><path d="M 16.484375 0.828125 C 13.640625 0.828125 11.160156 0.375 9.046875 -0.53125 C 6.929688 -1.4375 5.289062 -2.703125 4.125 -4.328125 C 2.957031 -5.953125 2.375 -7.851562 2.375 -10.03125 L 11.203125 -10.03125 C 11.242188 -8.757812 11.738281 -7.75 12.6875 -7 C 13.632812 -6.25 14.941406 -5.875 16.609375 -5.875 C 18.035156 -5.875 19.140625 -6.140625 19.921875 -6.671875 C 20.710938 -7.203125 21.109375 -7.925781 21.109375 -8.84375 C 21.109375 -9.832031 20.570312 -10.648438 19.5 -11.296875 C 18.4375 -11.953125 16.703125 -12.476562 14.296875 -12.875 C 10.335938 -13.582031 7.425781 -14.726562 5.5625 -16.3125 C 3.707031 -17.894531 2.78125 -19.96875 2.78125 -22.53125 C 2.78125 -25.582031 3.914062 -27.914062 6.1875 -29.53125 C 8.46875 -31.15625 11.703125 -31.96875 15.890625 -31.96875 C 20.046875 -31.96875 23.300781 -31.078125 25.65625 -29.296875 C 28.007812 -27.515625 29.285156 -24.984375 29.484375 -21.703125 L 20.875 -21.703125 C 20.800781 -22.890625 20.316406 -23.804688 19.421875 -24.453125 C 18.535156 -25.109375 17.34375 -25.4375 15.84375 -25.4375 C 14.488281 -25.4375 13.425781 -25.179688 12.65625 -24.671875 C 11.882812 -24.160156 11.5 -23.445312 11.5 -22.53125 C 11.5 -21.582031 12.003906 -20.84375 13.015625 -20.3125 C 14.023438 -19.78125 15.851562 -19.238281 18.5 -18.6875 C 26.175781 -17.144531 30.015625 -13.84375 30.015625 -8.78125 C 30.015625 -5.8125 28.816406 -3.46875 26.421875 -1.75 C 24.023438 -0.03125 20.710938 0.828125 16.484375 0.828125 Z M 16.484375 0.828125 "/></g></g></g><g fill="#000000" fill-opacity="1"><g transform="translate(179.20221, 63.075083)"><g><path d="M 4.5 0 L 4.5 -43.890625 L 13.515625 -43.890625 L 13.515625 -19.921875 L 15.84375 -19.921875 C 17.738281 -19.921875 19.171875 -20.226562 20.140625 -20.84375 C 21.109375 -21.457031 21.890625 -22.632812 22.484375 -24.375 L 24.671875 -31.140625 L 34.40625 -31.140625 L 30.78125 -21.234375 C 29.789062 -18.460938 28.46875 -16.347656 26.8125 -14.890625 L 35.765625 0 L 25.265625 0 L 18.390625 -11.859375 L 13.515625 -11.859375 L 13.515625 0 Z M 4.5 0 "/></g></g></g><g fill="#000000" fill-opacity="1"><g transform="translate(213.232311, 63.075083)"><g><path d="M 16.90625 0.828125 C 12.875 0.828125 9.703125 -0.445312 7.390625 -3 C 5.078125 -5.550781 3.921875 -8.976562 3.921875 -13.28125 L 3.921875 -31.140625 L 12.9375 -31.140625 L 12.9375 -14.171875 C 12.9375 -11.878906 13.476562 -10.097656 14.5625 -8.828125 C 15.644531 -7.566406 17.140625 -6.9375 19.046875 -6.9375 C 21.097656 -6.9375 22.734375 -7.644531 23.953125 -9.0625 C 25.179688 -10.488281 25.796875 -12.429688 25.796875 -14.890625 L 25.796875 -31.140625 L 34.8125 -31.140625 L 34.8125 0 L 28.109375 0 L 27.171875 -3.5 C 25.941406 -2.039062 24.4375 -0.953125 22.65625 -0.234375 C 20.875 0.472656 18.957031 0.828125 16.90625 0.828125 Z M 16.90625 0.828125 "/></g></g></g><g fill="#000000" fill-opacity="1"><g transform="translate(249.278224, 63.075083)"><g><path d="M 4.5 0 L 4.5 -43.890625 L 13.515625 -43.890625 L 13.515625 0 Z M 4.5 0 "/></g></g></g></g></g></svg>